<?xml version="1.0" standalone="no"?>
<!DOCTYPE svg PUBLIC "-//W3C//DTD SVG 20010904//EN"
 "http://www.w3.org/TR/2001/REC-SVG-20010904/DTD/svg10.dtd">
<svg version="1.0" xmlns="http://www.w3.org/2000/svg"
 width="400.000000pt" height="300.000000pt" viewBox="0 0 400.000000 300.000000"
 preserveAspectRatio="xMidYMid meet">

<g transform="translate(0.000000,300.000000) scale(0.100000,-0.100000)"
fill="#000000" stroke="none">
<path d="M2076 2125 c-30 -71 -68 -202 -91 -314 -27 -128 -49 -160 -76 -110
-9 18 -7 25 17 50 34 36 26 48 -14 19 l-29 -22 -32 33 c-31 31 -33 35 -26 86
8 63 0 66 -54 24 -32 -26 -46 -29 -117 -32 -71 -3 -85 0 -129 24 -26 15 -52
24 -57 19 -4 -4 -1 -29 7 -54 16 -45 16 -46 -10 -84 -14 -20 -28 -48 -32 -62
-5 -22 -9 -24 -45 -18 -22 4 -43 7 -48 9 -4 1 -8 -2 -9 -8 -1 -5 18 -16 42
-24 51 -17 49 -15 41 -34 -3 -9 -24 -22 -45 -28 -22 -7 -39 -18 -39 -27 0 -9
6 -12 16 -8 62 24 59 32 60 -136 1 -143 21 -326 57 -518 l12 -65 53 0 c28 1
258 2 511 3 l459 2 7 22 c11 35 17 442 8 533 l-8 80 49 65 c62 83 115 192 122
256 6 44 3 53 -20 81 -38 46 -83 56 -233 57 l-133 1 -5 30 c-2 16 -9 57 -15
89 -5 33 -10 61 -10 63 0 2 -6 3 -13 3 -14 0 -44 -45 -69 -105 -18 -44 -17
-45 -46 59 -10 39 -23 71 -30 74 -6 2 -18 -13 -26 -33z m55 -131 c23 -93 24
-95 49 -89 14 3 97 8 185 11 229 9 285 -11 285 -98 -1 -73 -65 -202 -142 -284
l-29 -31 12 -149 c11 -138 7 -384 -8 -455 -5 -25 -10 -29 -38 -29 -17 0 -34 2
-37 5 -2 3 1 32 8 64 6 33 15 96 19 141 6 68 5 82 -6 78 -9 -3 -15 -23 -16
-54 -4 -70 -23 -196 -34 -216 -11 -20 -34 -24 -44 -8 -3 5 -15 63 -26 127 -11
65 -22 120 -25 122 -15 15 -15 -23 1 -121 10 -62 18 -117 19 -122 0 -5 -4 -10
-11 -13 -6 -2 -14 9 -18 25 -12 54 -47 76 -131 80 -46 3 -74 8 -74 16 0 108
-42 387 -76 505 -29 97 -25 170 7 178 11 3 19 12 19 20 0 9 -6 13 -15 9 -19
-7 -19 0 5 109 27 125 82 298 90 285 4 -6 18 -54 31 -106z m124 9 c4 -39 3
-63 -3 -63 -5 0 -24 -3 -42 -6 -32 -7 -32 -7 -25 27 4 19 16 56 28 82 24 57
32 50 42 -40z m-459 -158 c-3 -9 -12 -12 -21 -9 -14 6 -14 9 2 26 18 20 30 10
19 -17z m-256 -6 c0 -15 -29 -17 -34 -3 -11 28 -6 34 14 22 11 -7 20 -16 20
-19z m226 -27 c56 -29 101 -79 86 -94 -19 -19 -14 -29 12 -22 38 9 42 -22 4
-35 -22 -8 -28 -15 -21 -22 6 -6 18 -6 36 0 24 9 28 7 43 -22 15 -28 16 -46 6
-162 -7 -71 -15 -209 -18 -305 l-7 -175 -31 -15 c-23 -11 -34 -25 -40 -52
l-10 -38 -64 0 -64 0 7 115 c5 73 4 115 -2 115 -10 0 -23 -91 -23 -161 0 -60
-7 -69 -55 -69 l-42 0 -6 48 c-4 26 -10 84 -13 130 -5 61 -10 82 -21 82 -10 0
-13 -8 -9 -27 2 -16 8 -59 11 -98 3 -38 9 -85 12 -103 5 -33 5 -33 -28 -30
l-34 3 -17 95 c-49 280 -65 585 -31 622 12 13 13 22 6 29 -13 13 0 68 30 122
22 38 65 72 115 88 40 13 124 3 168 -19z m194 -156 c0 -3 -4 -8 -10 -11 -5 -3
-10 -1 -10 4 0 6 5 11 10 11 6 0 10 -2 10 -4z m38 -286 c25 -131 40 -265 44
-395 l3 -99 -50 -1 -50 0 0 245 c1 252 10 396 25 369 5 -8 17 -61 28 -119z
m226 -433 c17 -11 26 -27 26 -43 l0 -25 -87 3 -88 3 -3 34 c-2 20 2 38 10 43
20 14 113 4 142 -15z m-312 -59 c-4 -9 -46 -11 -55 -2 -10 10 14 63 31 66 12
3 19 -5 23 -27 3 -16 3 -33 1 -37z"/>
<path d="M2491 1854 c-21 -27 -20 -35 7 -66 33 -38 122 -11 122 37 0 55 -93
75 -129 29z"/>
<path d="M2240 1834 c-11 -12 -10 -18 3 -31 8 -9 23 -13 31 -10 21 8 21 43 0
51 -21 8 -20 8 -34 -10z"/>
<path d="M1680 1684 c-11 -12 -10 -18 3 -32 16 -15 18 -15 34 0 13 14 14 20 3
32 -7 9 -16 16 -20 16 -4 0 -13 -7 -20 -16z"/>
<path d="M1554 1675 c-8 -19 3 -35 26 -35 19 0 34 25 24 41 -8 14 -44 10 -50
-6z"/>
<path d="M1630 1560 c6 -11 15 -20 20 -20 5 0 14 9 20 20 10 18 8 20 -20 20
-28 0 -30 -2 -20 -20z"/>
</g>
</svg>
